<svg width="25" height="21" viewBox="0 0 25 21" fill="none" xmlns="http://www.w3.org/2000/svg">
<path d="M15.1067 1.22842C15.2227 1.34143 15.7187 1.76812 16.1267 2.16559C18.6927 4.49584 22.8927 10.5747 24.1747 13.7564C24.3807 14.2396 24.8167 15.4613 24.8447 16.114C24.8447 16.7394 24.7007 17.3356 24.4087 17.9045C24.0007 18.6137 23.3587 19.1826 22.6007 19.4944C22.0747 19.6951 20.5007 20.0068 20.4727 20.0068C18.7507 20.3185 15.9527 20.49 12.8607 20.49C9.91473 20.49 7.23073 20.3185 5.48273 20.0633C5.45473 20.0341 3.49873 19.7223 2.82873 19.3814C1.60473 18.7559 0.844727 17.5343 0.844727 16.227V16.114C0.874727 15.2625 1.63473 13.472 1.66273 13.472C2.94673 10.4617 6.94073 4.52311 9.59473 2.13636C9.59473 2.13636 10.2767 1.46417 10.7027 1.17192C11.3147 0.716001 12.0727 0.48999 12.8307 0.48999C13.6767 0.48999 14.4647 0.745226 15.1067 1.22842Z" fill="white"/>
</svg>
